<svg width="50" height="40" viewBox="0 0 50 40" fill="none" xmlns="http://www.w3.org/2000/svg">
<path d="M21.875 3.125C21.875 1.40625 23.2031 0 25 0C26.7188 0 28.125 1.40625 28.125 3.125C28.125 4.92188 26.7188 6.25 25 6.25C23.2031 6.25 21.875 4.92188 21.875 3.125ZM29.2969 19.7656C29.4531 20.8594 28.75 21.7969 27.6562 21.875C26.6406 22.0312 25.7031 21.3281 25.625 20.2344L25.2344 17.5H24.6875L24.2969 20.2344C24.2188 21.3281 23.2812 22.0312 22.2656 21.875C21.1719 21.7969 20.4688 20.8594 20.625 19.7656L21.4844 12.8906L19.9219 14.1406C19.1406 14.8438 17.9688 14.7656 17.2656 13.9844C16.6406 13.125 16.7188 11.9531 17.5 11.3281L20.7812 8.59375C21.5625 7.89062 22.5 7.5 23.5938 7.5H26.3281C27.4219 7.5 28.3594 7.89062 29.1406 8.59375L32.4219 11.3281C33.2031 11.9531 33.2812 13.125 32.6562 13.9844C31.9531 14.7656 30.7812 14.8438 30 14.1406L28.4375 12.8906L29.2969 19.7656ZM6.25 20.2344L10.9375 26.4844C11.6406 27.5 13.0469 27.6562 13.9844 26.875C14.8438 26.25 15.0781 25 14.5312 24.1406L12.8125 21.3281C12.1094 20.1562 12.4219 18.75 13.5156 17.9688C14.6094 17.2656 16.0938 17.4219 16.875 18.4375L20.5469 23.0469C21.7969 24.5312 22.5 26.4844 22.5 28.5156V37.5C22.5 38.9062 21.3281 40 20 40H12.5C11.7188 40 11.0156 39.6875 10.5469 39.0625L1.09375 27.2656C0.3125 26.4062 0 25.3125 0 24.1406V8.125C0 6.40625 1.32812 5 3.125 5C4.84375 5 6.25 6.40625 6.25 8.125V20.2344ZM50 8.125V24.1406C50 25.3125 49.6094 26.4062 48.8281 27.2656L39.375 39.0625C38.9062 39.6875 38.2031 40 37.5 40H30C28.5938 40 27.5 38.9062 27.5 37.5V28.5156C27.5 26.4844 28.125 24.5312 29.375 23.0469L33.0469 18.4375C33.8281 17.4219 35.3125 17.2656 36.4062 17.9688C37.5 18.75 37.8125 20.1562 37.1094 21.3281L35.3906 24.1406C34.8438 25 35.0781 26.25 35.9375 26.875C36.875 27.6562 38.2812 27.5 38.9844 26.4844L43.75 20.2344V8.125C43.75 6.40625 45.0781 5 46.875 5C48.5938 5 50 6.40625 50 8.125Z" fill="#FE9903"/>
</svg>
